# xmcd
#
# Track frame offsets: 
#        150
#        12873
#        22919
#        34045
#        45744
#        55432
#        67668
#        79036
#        91030
#        105208
#        117866
#        130953
#        143122
#        155797
#        167127
#        177636
#        189261
#        202261
#        212413
#        226481
#        238859
#        249937
#        264169
#        276101
#        286877
#        299899
#        310593
#        320702
#
# Disc length: 4426 seconds
#
# Revision: 0
# Processed by: cddbd v1.5.2PL0 Copyright (c) Steve Scherf et al.
# Submitted via: ExactAudioCopy v0.95b3
#
DISCID=8b11481c
DTITLE=Various Artist - Chicken Shack Boogie vol #2
DYEAR=1900
DGENRE=Chicken Shack
TTITLE0=Why Don't You Eat Where You Slept Last Night?- ZuZu Bollin
TTITLE1=Pipe Dreams-Jimmy Beck
TTITLE2=Real Gone Lover-Smiley Lewis
TTITLE3=Mumbles Blues-Paul Bascomb 
TTITLE4=That's Your Mistake-Charms
TTITLE5=Rhythm Rockin' Blues-Rollee McGill
TTITLE6=When The Saints Go Marchin' In Boogie-Dave Bartholomew
TTITLE7=Page Boy Shuffle-Joe Thomas
TTITLE8=My Dear, My Darling-Counts
TTITLE9=Loose Caboose-Joe Weaver
TTITLE10=Gee Baby-Jo and Ann
TTITLE11=Messy Bessy-Louis Jordan
TTITLE12=Mercy Mr. Percy-Varetta Dillard
TTITLE13=Come Back Baby-Cliques
TTITLE14=Looped-Tommy Ridgely
TTITLE15=Nobody Loves Me-Clifton Chenier
TTITLE16=I Like Moonshine-5 Owls
TTITLE17=Single Life-Billy Tate
TTITLE18=If It's So Baby-Robins
TTITLE19=Whole Lotta Shakin' Going On-Big Maybelle
TTITLE20=Oo Gee Oo Wee-Charlie and Ray
TTITLE21=Milk And Water- Amos Milburn
TTITLE22=Sugar-Playmates
TTITLE23=Ain't Gonna Do It-Pelicans
TTITLE24=Court Room Blues-Johnny Otis
TTITLE25=Who Knows-Charms
TTITLE26=T-Model Boogie-Rosco Gordon
TTITLE27=Juiced-Billy Love
EXTD=
EXTT0=
EXTT1=
EXTT2=
EXTT3=
EXTT4=
EXTT5=
EXTT6=
EXTT7=
EXTT8=
EXTT9=
EXTT10=
EXTT11=
EXTT12=
EXTT13=
EXTT14=
EXTT15=
EXTT16=
EXTT17=
EXTT18=
EXTT19=
EXTT20=
EXTT21=
EXTT22=
EXTT23=
EXTT24=
EXTT25=
EXTT26=
EXTT27=
PLAYORDER=
